<?xml version="1.0" encoding="UTF-8" standalone="no"?>
<svg
   width="946.47687pt"
   height="745.30194pt"
   viewBox="0 0 946.47687 745.30194"
   version="1.1"
   id="svg48"
   sodipodi:docname="square.svg"
   inkscape:version="1.2.2 (b0a8486541, 2022-12-01)"
   xmlns:inkscape="http://www.inkscape.org/namespaces/inkscape"
   xmlns:sodipodi="http://sodipodi.sourceforge.net/DTD/sodipodi-0.dtd"
   xmlns="http://www.w3.org/2000/svg"
   xmlns:svg="http://www.w3.org/2000/svg"
   xmlns:rdf="http://www.w3.org/1999/02/22-rdf-syntax-ns#"
   xmlns:cc="http://creativecommons.org/ns#"
   xmlns:dc="http://purl.org/dc/elements/1.1/"
   xmlns:ns5="http://www.iki.fi/pav/software/textext/">
  <sodipodi:namedview
     id="namedview50"
     pagecolor="#ffffff"
     bordercolor="#666666"
     borderopacity="1.0"
     inkscape:showpageshadow="2"
     inkscape:pageopacity="0.0"
     inkscape:pagecheckerboard="0"
     inkscape:deskcolor="#d1d1d1"
     inkscape:document-units="pt"
     showgrid="false"
     inkscape:zoom="0.68070652"
     inkscape:cx="556.03992"
     inkscape:cy="452.47106"
     inkscape:window-width="1920"
     inkscape:window-height="1051"
     inkscape:window-x="1920"
     inkscape:window-y="0"
     inkscape:window-maximized="1"
     inkscape:current-layer="svg48" />
  <title
     id="title2">square</title>
  <desc
     id="desc4">
Creator: GL2PS 1.4.3, (C) 1999-2020 C. Geuzaine
For: Gmsh
CreationDate: Tue Jun 29 11:34:43 2021
</desc>
  <defs
     id="defs6" />
  <rect
     style="fill:#c0c0c0;stroke:none;stroke-width:9.99998;stroke-linecap:round;stroke-linejoin:bevel;stroke-opacity:0.742878;fill-opacity:1"
     id="rect916"
     width="651.57672"
     height="654.04791"
     x="148.01839"
     y="48.284157" />
  <polyline
     fill="none"
     stroke="#0000ff"
     stroke-width="2"
     stroke-linecap="butt"
     stroke-linejoin="miter"
     points="368.929,788.571 1026.07,788.571 1026.07,131.429 368.929,131.429 368.929,788.571"
     id="polyline16"
     style="stroke-width:10;stroke-dasharray:none"
     transform="translate(-224.54894,-84.289001)" />
  <circle
     fill="#5a5a5a"
     cx="144.38005"
     cy="704.28198"
     id="circle8"
     r="2" />
  <circle
     fill="#5a5a5a"
     cx="801.521"
     cy="704.28198"
     r="2"
     id="circle10" />
  <circle
     fill="#5a5a5a"
     cx="801.521"
     cy="47.139999"
     r="2"
     id="circle12" />
  <circle
     fill="#5a5a5a"
     cx="144.38005"
     cy="47.139999"
     id="circle14"
     r="14.37501"
     style="stroke-width:7.18751" />
  <text
     fill="#0000ff"
     x="265.45105"
     y="686.78198"
     font-size="15px"
     text-anchor="start"
     dy="0"
     font-family="Helvetica"
     id="text18"
     style="font-size:40px;fill:#000000;fill-opacity:1">Line 1 (OCC)</text>
  <text
     fill="#0000ff"
     x="265.45105"
     y="736.58197"
     font-size="15px"
     text-anchor="start"
     dy="0"
     font-family="Helvetica"
     id="text20"
     style="font-size:40px;fill:#000000;fill-opacity:1">Physical Curve 4: bottom</text>
  <text
     fill="#0000ff"
     x="-572.91095"
     y="787.34094"
     font-size="15px"
     text-anchor="start"
     dy="0"
     font-family="Helvetica"
     id="text22"
     style="font-size:40px;fill:#000000;fill-opacity:1"
     transform="rotate(-90)">Line 2 (OCC)</text>
  <text
     fill="#0000ff"
     x="-572.91095"
     y="837.14099"
     font-size="15px"
     text-anchor="start"
     dy="0"
     font-family="Helvetica"
     id="text24"
     style="font-size:40px;fill:#000000;fill-opacity:1"
     transform="rotate(-90)">Physical Curve 3: right</text>
  <text
     fill="#0000ff"
     x="265.45105"
     y="29.639999"
     font-size="15px"
     text-anchor="start"
     dy="0"
     font-family="Helvetica"
     id="text26"
     style="font-size:40px;fill:#000000;fill-opacity:1">Line 3 (OCC)</text>
  <text
     fill="#0000ff"
     x="265.45105"
     y="79.440002"
     font-size="15px"
     text-anchor="start"
     dy="0"
     font-family="Helvetica"
     id="text28"
     style="font-size:40px;fill:#000000;fill-opacity:1">Physical Curve 5: top</text>
  <text
     fill="#0000ff"
     x="-561.09094"
     y="130.38002"
     font-size="15px"
     text-anchor="start"
     dy="0"
     font-family="Helvetica"
     id="text30"
     style="font-size:40px;fill:#000000;fill-opacity:1"
     transform="rotate(-90)">Line 4 (OCC)</text>
  <text
     fill="#0000ff"
     x="-561.09094"
     y="180.18001"
     font-size="15px"
     text-anchor="start"
     dy="0"
     font-family="Helvetica"
     id="text32"
     style="font-size:40px;fill:#000000;fill-opacity:1"
     transform="rotate(-90)">Physical Curve 2: left</text>
  <circle
     fill="#5a5a5a"
     cx="144.38005"
     cy="704.31067"
     id="circle958"
     r="14.37501"
     style="stroke-width:7.18751" />
  <circle
     fill="#5a5a5a"
     cx="799.88"
     cy="47.139999"
     id="circle960"
     r="14.37501"
     style="stroke-width:7.18751" />
  <circle
     fill="#5a5a5a"
     cx="799.88"
     cy="704.31067"
     id="circle962"
     r="14.37501"
     style="stroke-width:7.18751" />
  <g
     ns5:version="1.8.2"
     ns5:texconverter="xelatex"
     ns5:pdfconverter="inkscape"
     ns5:text="$(0,0)$"
     ns5:preamble="/usr/share/inkscape/extensions/textext/default_packages.tex"
     ns5:scale="5.9116784"
     ns5:alignment="middle center"
     ns5:stroke-to-path="0"
     transform="matrix(5.91168,0,0,5.91168,-0.00221688,671.46505)"
     ns5:jacobian_sqrt="5.91168"
     id="g1038">
    <defs
       id="id-50adb85a-73fe-484c-9611-4121fcaab506">
      <g
         id="id-48afd3a8-32b3-4040-b7b7-12160776ea07">
        <symbol
           overflow="visible"
           id="id-5358cab3-3599-4b96-b47f-7ecc2ef94794">
          <path
             style="stroke:none;stroke-width:0"
             d=""
             id="id-9753225d-93a2-412a-aa64-6891dca3aeb5" />
        </symbol>
        <symbol
           overflow="visible"
           id="id-8b8ed8ab-9fb2-46d9-95d4-f6b50b806ccf">
          <path
             style="stroke:none;stroke-width:0"
             d="m 3.296875,2.390625 c 0,-0.03125 0,-0.046875 -0.171875,-0.21875 C 1.890625,0.921875 1.5625,-0.96875 1.5625,-2.5 c 0,-1.734375 0.375,-3.46875 1.609375,-4.703125 0.125,-0.125 0.125,-0.140625 0.125,-0.171875 0,-0.078125 -0.03125,-0.109375 -0.09375,-0.109375 -0.109375,0 -1,0.6875 -1.59375,1.953125 -0.5,1.09375 -0.625,2.203125 -0.625,3.03125 0,0.78125 0.109375,1.984375 0.65625,3.125 C 2.25,1.84375 3.09375,2.5 3.203125,2.5 c 0.0625,0 0.09375,-0.03125 0.09375,-0.109375 z m 0,0"
             id="id-f669a449-dee1-4afa-9ef5-90252244c316" />
        </symbol>
        <symbol
           overflow="visible"
           id="id-d58a4152-1797-4edd-b64b-cbc99f2b3145">
          <path
             style="stroke:none;stroke-width:0"
             d="m 4.578125,-3.1875 c 0,-0.796875 -0.046875,-1.59375 -0.390625,-2.328125 -0.453125,-0.96875 -1.28125,-1.125 -1.6875,-1.125 -0.609375,0 -1.328125,0.265625 -1.75,1.1875 -0.3125,0.6875 -0.359375,1.46875 -0.359375,2.265625 0,0.75 0.03125,1.640625 0.453125,2.40625 0.421875,0.796875 1.15625,1 1.640625,1 0.53125,0 1.296875,-0.203125 1.734375,-1.15625 0.3125,-0.6875 0.359375,-1.46875 0.359375,-2.25 z M 2.484375,0 C 2.09375,0 1.5,-0.25 1.328125,-1.203125 1.21875,-1.796875 1.21875,-2.71875 1.21875,-3.3125 c 0,-0.640625 0,-1.296875 0.078125,-1.828125 0.1875,-1.1875 0.9375,-1.28125 1.1875,-1.28125 0.328125,0 0.984375,0.1875 1.171875,1.171875 0.109375,0.5625 0.109375,1.3125 0.109375,1.9375 0,0.75 0,1.421875 -0.109375,2.0625 C 3.5,-0.296875 2.9375,0 2.484375,0 Z m 0,0"
             id="id-40fe8ac2-ad65-4d01-a7c2-14eee0d01af4" />
        </symbol>
        <symbol
           overflow="visible"
           id="id-27ea8bbc-6ca4-4a84-bd04-5386655d217d">
          <path
             style="stroke:none;stroke-width:0"
             d="m 2.875,-2.5 c 0,-0.765625 -0.109375,-1.96875 -0.65625,-3.109375 -0.59375,-1.21875 -1.453125,-1.875 -1.546875,-1.875 -0.0625,0 -0.109375,0.046875 -0.109375,0.109375 0,0.03125 0,0.046875 0.1875,0.234375 0.984375,0.984375 1.546875,2.5625 1.546875,4.640625 0,1.71875 -0.359375,3.46875 -1.59375,4.71875 C 0.5625,2.34375 0.5625,2.359375 0.5625,2.390625 0.5625,2.453125 0.609375,2.5 0.671875,2.5 0.765625,2.5 1.671875,1.8125 2.25,0.546875 2.765625,-0.546875 2.875,-1.65625 2.875,-2.5 Z m 0,0"
             id="id-7a59f08a-7007-4742-9658-418e410aa659" />
        </symbol>
        <symbol
           overflow="visible"
           id="id-06701963-d44d-40f8-87a3-f30f1d0fd6a8">
          <path
             style="stroke:none;stroke-width:0"
             d=""
             id="id-1d9607e3-1118-49e6-835f-28843ca098b3" />
        </symbol>
        <symbol
           overflow="visible"
           id="id-2334449f-5e9d-4bf4-912f-652733b7c82e">
          <path
             style="stroke:none;stroke-width:0"
             d="m 2.03125,-0.015625 c 0,-0.65625 -0.25,-1.046875 -0.640625,-1.046875 -0.328125,0 -0.53125,0.25 -0.53125,0.53125 C 0.859375,-0.265625 1.0625,0 1.390625,0 1.5,0 1.640625,-0.046875 1.734375,-0.125 1.765625,-0.15625 1.78125,-0.15625 1.78125,-0.15625 c 0.015625,0 0.015625,0 0.015625,0.140625 0,0.75 -0.34375,1.34375 -0.671875,1.671875 -0.109375,0.109375 -0.109375,0.125 -0.109375,0.15625 0,0.078125 0.046875,0.109375 0.09375,0.109375 0.109375,0 0.921875,-0.765625 0.921875,-1.9375 z m 0,0"
             id="id-bb7f14a4-5165-4edb-aed8-a8bf14a33dc5" />
        </symbol>
      </g>
    </defs>
    <g
       id="id-a1bd9755-1b7e-493a-a162-13a01e0e4ac3"
       transform="translate(-149.696,-127.281)">
      <g
         style="fill:#000000;fill-opacity:1"
         id="id-c2b58726-780b-4b52-8278-adb3b217b991">
        <g
           transform="translate(148.712,134.765)"
           id="g1020">
          <path
             style="stroke:none;stroke-width:0"
             d="m 3.296875,2.390625 c 0,-0.03125 0,-0.046875 -0.171875,-0.21875 C 1.890625,0.921875 1.5625,-0.96875 1.5625,-2.5 c 0,-1.734375 0.375,-3.46875 1.609375,-4.703125 0.125,-0.125 0.125,-0.140625 0.125,-0.171875 0,-0.078125 -0.03125,-0.109375 -0.09375,-0.109375 -0.109375,0 -1,0.6875 -1.59375,1.953125 -0.5,1.09375 -0.625,2.203125 -0.625,3.03125 0,0.78125 0.109375,1.984375 0.65625,3.125 C 2.25,1.84375 3.09375,2.5 3.203125,2.5 c 0.0625,0 0.09375,-0.03125 0.09375,-0.109375 z m 0,0"
             id="id-ff188a53-62a7-442b-9970-969926422627" />
        </g>
        <g
           transform="translate(152.577,134.765)"
           id="g1023">
          <path
             style="stroke:none;stroke-width:0"
             d="m 4.578125,-3.1875 c 0,-0.796875 -0.046875,-1.59375 -0.390625,-2.328125 -0.453125,-0.96875 -1.28125,-1.125 -1.6875,-1.125 -0.609375,0 -1.328125,0.265625 -1.75,1.1875 -0.3125,0.6875 -0.359375,1.46875 -0.359375,2.265625 0,0.75 0.03125,1.640625 0.453125,2.40625 0.421875,0.796875 1.15625,1 1.640625,1 0.53125,0 1.296875,-0.203125 1.734375,-1.15625 0.3125,-0.6875 0.359375,-1.46875 0.359375,-2.25 z M 2.484375,0 C 2.09375,0 1.5,-0.25 1.328125,-1.203125 1.21875,-1.796875 1.21875,-2.71875 1.21875,-3.3125 c 0,-0.640625 0,-1.296875 0.078125,-1.828125 0.1875,-1.1875 0.9375,-1.28125 1.1875,-1.28125 0.328125,0 0.984375,0.1875 1.171875,1.171875 0.109375,0.5625 0.109375,1.3125 0.109375,1.9375 0,0.75 0,1.421875 -0.109375,2.0625 C 3.5,-0.296875 2.9375,0 2.484375,0 Z m 0,0"
             id="id-1bbd6afd-233d-402d-a651-28da16eca9d5" />
        </g>
      </g>
      <g
         style="fill:#000000;fill-opacity:1"
         id="id-92b1ca42-1e05-4e1f-b4e2-943db0687e97">
        <g
           transform="translate(157.568,134.765)"
           id="g1027">
          <path
             style="stroke:none;stroke-width:0"
             d="m 2.03125,-0.015625 c 0,-0.65625 -0.25,-1.046875 -0.640625,-1.046875 -0.328125,0 -0.53125,0.25 -0.53125,0.53125 C 0.859375,-0.265625 1.0625,0 1.390625,0 1.5,0 1.640625,-0.046875 1.734375,-0.125 1.765625,-0.15625 1.78125,-0.15625 1.78125,-0.15625 c 0.015625,0 0.015625,0 0.015625,0.140625 0,0.75 -0.34375,1.34375 -0.671875,1.671875 -0.109375,0.109375 -0.109375,0.125 -0.109375,0.15625 0,0.078125 0.046875,0.109375 0.09375,0.109375 0.109375,0 0.921875,-0.765625 0.921875,-1.9375 z m 0,0"
             id="id-42fcbc95-db1a-4e6c-baf9-09549a0a4545" />
        </g>
      </g>
      <g
         style="fill:#000000;fill-opacity:1"
         id="id-6af63c2c-a68c-43cd-820a-ac63f6fcda8b">
        <g
           transform="translate(161.996,134.765)"
           id="g1031">
          <path
             style="stroke:none;stroke-width:0"
             d="m 4.578125,-3.1875 c 0,-0.796875 -0.046875,-1.59375 -0.390625,-2.328125 -0.453125,-0.96875 -1.28125,-1.125 -1.6875,-1.125 -0.609375,0 -1.328125,0.265625 -1.75,1.1875 -0.3125,0.6875 -0.359375,1.46875 -0.359375,2.265625 0,0.75 0.03125,1.640625 0.453125,2.40625 0.421875,0.796875 1.15625,1 1.640625,1 0.53125,0 1.296875,-0.203125 1.734375,-1.15625 0.3125,-0.6875 0.359375,-1.46875 0.359375,-2.25 z M 2.484375,0 C 2.09375,0 1.5,-0.25 1.328125,-1.203125 1.21875,-1.796875 1.21875,-2.71875 1.21875,-3.3125 c 0,-0.640625 0,-1.296875 0.078125,-1.828125 0.1875,-1.1875 0.9375,-1.28125 1.1875,-1.28125 0.328125,0 0.984375,0.1875 1.171875,1.171875 0.109375,0.5625 0.109375,1.3125 0.109375,1.9375 0,0.75 0,1.421875 -0.109375,2.0625 C 3.5,-0.296875 2.9375,0 2.484375,0 Z m 0,0"
             id="id-d7876f64-d6bd-478f-8463-0aa0e90a85ea" />
        </g>
        <g
           transform="translate(166.977,134.765)"
           id="g1034">
          <path
             style="stroke:none;stroke-width:0"
             d="m 2.875,-2.5 c 0,-0.765625 -0.109375,-1.96875 -0.65625,-3.109375 -0.59375,-1.21875 -1.453125,-1.875 -1.546875,-1.875 -0.0625,0 -0.109375,0.046875 -0.109375,0.109375 0,0.03125 0,0.046875 0.1875,0.234375 0.984375,0.984375 1.546875,2.5625 1.546875,4.640625 0,1.71875 -0.359375,3.46875 -1.59375,4.71875 C 0.5625,2.34375 0.5625,2.359375 0.5625,2.390625 0.5625,2.453125 0.609375,2.5 0.671875,2.5 0.765625,2.5 1.671875,1.8125 2.25,0.546875 2.765625,-0.546875 2.875,-1.65625 2.875,-2.5 Z m 0,0"
             id="id-372dd54d-345e-4895-9adb-c6d5358b6d21" />
        </g>
      </g>
    </g>
  </g>
  <g
     ns5:version="1.8.2"
     ns5:texconverter="xelatex"
     ns5:pdfconverter="inkscape"
     ns5:text="$(1,1)$"
     ns5:preamble="/usr/share/inkscape/extensions/textext/default_packages.tex"
     ns5:scale="5.9116784"
     ns5:alignment="middle center"
     ns5:stroke-to-path="0"
     transform="matrix(5.91168,0,0,5.91168,827.32106,13.377399)"
     ns5:jacobian_sqrt="5.91168"
     id="g1126">
    <defs
       id="id-460adbb1-1407-4631-b085-33fa1511e502">
      <g
         id="id-cae18431-b339-47b4-9177-e36ff59d5aa4">
        <symbol
           overflow="visible"
           id="id-7f8ee7e2-171a-4442-8dc6-afa29a5723a9">
          <path
             style="stroke:none"
             d=""
             id="id-929d6be7-0f64-4e51-b845-e0f764c2589b" />
        </symbol>
        <symbol
           overflow="visible"
           id="id-09402397-17c0-4578-aab2-125a7a81335c">
          <path
             style="stroke:none"
             d="m 3.296875,2.390625 c 0,-0.03125 0,-0.046875 -0.171875,-0.21875 C 1.890625,0.921875 1.5625,-0.96875 1.5625,-2.5 c 0,-1.734375 0.375,-3.46875 1.609375,-4.703125 0.125,-0.125 0.125,-0.140625 0.125,-0.171875 0,-0.078125 -0.03125,-0.109375 -0.09375,-0.109375 -0.109375,0 -1,0.6875 -1.59375,1.953125 -0.5,1.09375 -0.625,2.203125 -0.625,3.03125 0,0.78125 0.109375,1.984375 0.65625,3.125 C 2.25,1.84375 3.09375,2.5 3.203125,2.5 c 0.0625,0 0.09375,-0.03125 0.09375,-0.109375 z m 0,0"
             id="id-bcd30465-6f57-4116-b00d-49a39b3bc27d" />
        </symbol>
        <symbol
           overflow="visible"
           id="id-936caea5-9b97-4e75-89f7-069d8ca795c8">
          <path
             style="stroke:none"
             d="m 2.9375,-6.375 c 0,-0.25 0,-0.265625 -0.234375,-0.265625 C 2.078125,-6 1.203125,-6 0.890625,-6 v 0.3125 c 0.203125,0 0.78125,0 1.296875,-0.265625 v 5.171875 c 0,0.359375 -0.03125,0.46875 -0.921875,0.46875 h -0.3125 V 0 c 0.34375,-0.03125 1.203125,-0.03125 1.609375,-0.03125 0.390625,0 1.265625,0 1.609375,0.03125 v -0.3125 h -0.3125 c -0.90625,0 -0.921875,-0.109375 -0.921875,-0.46875 z m 0,0"
             id="id-ce557a22-031a-4df7-9c54-35cfc1684b42" />
        </symbol>
        <symbol
           overflow="visible"
           id="id-2d60a58a-ccdd-4013-b325-003d6aa5bf7d">
          <path
             style="stroke:none"
             d="m 2.875,-2.5 c 0,-0.765625 -0.109375,-1.96875 -0.65625,-3.109375 -0.59375,-1.21875 -1.453125,-1.875 -1.546875,-1.875 -0.0625,0 -0.109375,0.046875 -0.109375,0.109375 0,0.03125 0,0.046875 0.1875,0.234375 0.984375,0.984375 1.546875,2.5625 1.546875,4.640625 0,1.71875 -0.359375,3.46875 -1.59375,4.71875 C 0.5625,2.34375 0.5625,2.359375 0.5625,2.390625 0.5625,2.453125 0.609375,2.5 0.671875,2.5 0.765625,2.5 1.671875,1.8125 2.25,0.546875 2.765625,-0.546875 2.875,-1.65625 2.875,-2.5 Z m 0,0"
             id="id-7a2e683f-aec7-4f10-80ae-3f8ca6c2d4aa" />
        </symbol>
        <symbol
           overflow="visible"
           id="id-d97f421d-3762-4544-ab58-3a986e51eb39">
          <path
             style="stroke:none"
             d=""
             id="id-0091b319-bd94-4b92-9bd5-701c087c077a" />
        </symbol>
        <symbol
           overflow="visible"
           id="id-4aee4b97-b1a1-4176-a04e-68689a54f1b6">
          <path
             style="stroke:none"
             d="m 2.03125,-0.015625 c 0,-0.65625 -0.25,-1.046875 -0.640625,-1.046875 -0.328125,0 -0.53125,0.25 -0.53125,0.53125 C 0.859375,-0.265625 1.0625,0 1.390625,0 1.5,0 1.640625,-0.046875 1.734375,-0.125 1.765625,-0.15625 1.78125,-0.15625 1.78125,-0.15625 c 0.015625,0 0.015625,0 0.015625,0.140625 0,0.75 -0.34375,1.34375 -0.671875,1.671875 -0.109375,0.109375 -0.109375,0.125 -0.109375,0.15625 0,0.078125 0.046875,0.109375 0.09375,0.109375 0.109375,0 0.921875,-0.765625 0.921875,-1.9375 z m 0,0"
             id="id-db5c0989-92e6-48db-a7b1-19b183aa027e" />
        </symbol>
      </g>
    </defs>
    <g
       id="id-b96c6574-9a46-47fe-b53e-211f9ec509e0"
       transform="translate(-149.696,-127.281)">
      <g
         style="fill:#000000;fill-opacity:1"
         id="id-3a6cece8-6080-41a0-9440-bf29d915d678">
        <g
           transform="translate(148.712,134.765)"
           id="g1271">
          <path
             style="stroke:none"
             d="m 3.296875,2.390625 c 0,-0.03125 0,-0.046875 -0.171875,-0.21875 C 1.890625,0.921875 1.5625,-0.96875 1.5625,-2.5 c 0,-1.734375 0.375,-3.46875 1.609375,-4.703125 0.125,-0.125 0.125,-0.140625 0.125,-0.171875 0,-0.078125 -0.03125,-0.109375 -0.09375,-0.109375 -0.109375,0 -1,0.6875 -1.59375,1.953125 -0.5,1.09375 -0.625,2.203125 -0.625,3.03125 0,0.78125 0.109375,1.984375 0.65625,3.125 C 2.25,1.84375 3.09375,2.5 3.203125,2.5 c 0.0625,0 0.09375,-0.03125 0.09375,-0.109375 z m 0,0"
             id="id-06f17365-d9d8-443e-bd13-39f1c1ce417e" />
        </g>
        <g
           transform="translate(152.577,134.765)"
           id="g1274">
          <path
             style="stroke:none"
             d="m 2.9375,-6.375 c 0,-0.25 0,-0.265625 -0.234375,-0.265625 C 2.078125,-6 1.203125,-6 0.890625,-6 v 0.3125 c 0.203125,0 0.78125,0 1.296875,-0.265625 v 5.171875 c 0,0.359375 -0.03125,0.46875 -0.921875,0.46875 h -0.3125 V 0 c 0.34375,-0.03125 1.203125,-0.03125 1.609375,-0.03125 0.390625,0 1.265625,0 1.609375,0.03125 v -0.3125 h -0.3125 c -0.90625,0 -0.921875,-0.109375 -0.921875,-0.46875 z m 0,0"
             id="id-de9bedd6-7501-41bc-8561-e809a4f1f145" />
        </g>
      </g>
      <g
         style="fill:#000000;fill-opacity:1"
         id="id-cf0d8e4b-a986-4c1a-a56a-eb4cbabd2513">
        <g
           transform="translate(157.568,134.765)"
           id="g1278">
          <path
             style="stroke:none"
             d="m 2.03125,-0.015625 c 0,-0.65625 -0.25,-1.046875 -0.640625,-1.046875 -0.328125,0 -0.53125,0.25 -0.53125,0.53125 C 0.859375,-0.265625 1.0625,0 1.390625,0 1.5,0 1.640625,-0.046875 1.734375,-0.125 1.765625,-0.15625 1.78125,-0.15625 1.78125,-0.15625 c 0.015625,0 0.015625,0 0.015625,0.140625 0,0.75 -0.34375,1.34375 -0.671875,1.671875 -0.109375,0.109375 -0.109375,0.125 -0.109375,0.15625 0,0.078125 0.046875,0.109375 0.09375,0.109375 0.109375,0 0.921875,-0.765625 0.921875,-1.9375 z m 0,0"
             id="id-f91ffc1d-7055-4513-8f62-a459c9e307cf" />
        </g>
      </g>
      <g
         style="fill:#000000;fill-opacity:1"
         id="id-4ccba85b-15b4-4c79-8a1c-e4383259a661">
        <g
           transform="translate(161.996,134.765)"
           id="g1282">
          <path
             style="stroke:none"
             d="m 2.9375,-6.375 c 0,-0.25 0,-0.265625 -0.234375,-0.265625 C 2.078125,-6 1.203125,-6 0.890625,-6 v 0.3125 c 0.203125,0 0.78125,0 1.296875,-0.265625 v 5.171875 c 0,0.359375 -0.03125,0.46875 -0.921875,0.46875 h -0.3125 V 0 c 0.34375,-0.03125 1.203125,-0.03125 1.609375,-0.03125 0.390625,0 1.265625,0 1.609375,0.03125 v -0.3125 h -0.3125 c -0.90625,0 -0.921875,-0.109375 -0.921875,-0.46875 z m 0,0"
             id="id-65d946fa-c7fa-4e73-b949-1a4c4fe09f0f" />
        </g>
        <g
           transform="translate(166.977,134.765)"
           id="g1285">
          <path
             style="stroke:none"
             d="m 2.875,-2.5 c 0,-0.765625 -0.109375,-1.96875 -0.65625,-3.109375 -0.59375,-1.21875 -1.453125,-1.875 -1.546875,-1.875 -0.0625,0 -0.109375,0.046875 -0.109375,0.109375 0,0.03125 0,0.046875 0.1875,0.234375 0.984375,0.984375 1.546875,2.5625 1.546875,4.640625 0,1.71875 -0.359375,3.46875 -1.59375,4.71875 C 0.5625,2.34375 0.5625,2.359375 0.5625,2.390625 0.5625,2.453125 0.609375,2.5 0.671875,2.5 0.765625,2.5 1.671875,1.8125 2.25,0.546875 2.765625,-0.546875 2.875,-1.65625 2.875,-2.5 Z m 0,0"
             id="id-6c58146c-bd03-4967-b2f7-3b053b70d656" />
        </g>
      </g>
    </g>
  </g>
  <metadata
     id="metadata863">
    <rdf:RDF>
      <cc:Work
         rdf:about="">
        <dc:title>square</dc:title>
      </cc:Work>
    </rdf:RDF>
  </metadata>
</svg>
